<svg xmlns="http://www.w3.org/2000/svg" xmlns:xlink="http://www.w3.org/1999/xlink" preserveAspectRatio="xMidYMid" width="50" height="50" viewBox="0 0 50 50">
  <defs>
    <style>
      .cls-1 {
        fill: #fff;
        fill-rule: evenodd;
      }
    </style>
  </defs>
  <path d="M25.000,50.000 C11.215,50.000 0.000,38.784 0.000,25.000 C0.000,11.215 11.215,-0.000 25.000,-0.000 C38.785,-0.000 50.000,11.215 50.000,25.000 C50.000,38.784 38.785,50.000 25.000,50.000 ZM25.000,2.498 C12.592,2.498 2.498,12.591 2.498,25.000 C2.498,37.408 12.592,47.502 25.000,47.502 C37.408,47.502 47.502,37.408 47.502,25.000 C47.502,12.591 37.408,2.498 25.000,2.498 ZM29.710,32.911 C29.221,33.401 28.436,33.401 27.947,32.911 C27.457,32.422 27.457,31.638 27.947,31.148 L32.841,26.254 L14.142,26.254 C13.448,26.254 12.887,25.693 12.887,25.000 C12.887,24.306 13.448,23.746 14.142,23.746 L32.851,23.746 L27.957,18.852 C27.467,18.362 27.467,17.577 27.957,17.088 C28.446,16.598 29.231,16.598 29.721,17.088 L36.745,24.113 C36.990,24.357 37.102,24.674 37.102,25.000 C37.102,25.326 36.980,25.642 36.735,25.886 L29.710,32.911 Z" class="cls-1"/>
</svg>
